<svg width="263" height="25" viewBox="0 0 263 25" fill="none" xmlns="http://www.w3.org/2000/svg">
<path d="M13.9 6.2125L12.8375 9.5375L11.875 12.8625H10.9875L11.4375 10.1125L5.85 10.075L6.175 9.0125L11.775 8.9625L13.025 6.2125H13.9ZM16.725 5.975H16.125L15.3125 1.9375L15.975 2.25H8.025L8.4125 1.1H15.7125L17.35 0.412499H17.575L16.725 5.975ZM5.0875 16.9625L6.8125 17.5375L6.6625 18H0.4125L0.5625 17.5375L2.575 16.925L7.0625 2.1375L5.35 1.5625L5.4875 1.1H9.9125L5.0875 16.9625ZM15.5332 17.2625L18.8332 8.1625L19.2832 8.575C18.9749 8.55833 18.6415 8.61667 18.2832 8.75C17.9249 8.88333 17.5499 9.09167 17.1582 9.375C16.7749 9.65833 16.379 10.025 15.9707 10.475L15.5957 10.1125C16.1957 9.25417 16.7582 8.58333 17.2832 8.1C17.8165 7.60833 18.3207 7.2625 18.7957 7.0625C19.279 6.8625 19.7415 6.7625 20.1832 6.7625C20.6249 6.7625 20.929 6.84583 21.0957 7.0125C21.2707 7.17917 21.2999 7.42917 21.1832 7.7625L17.8707 17.075L17.5082 16.5C17.8165 16.5333 18.1499 16.5 18.5082 16.4C18.8749 16.2917 19.2624 16.1083 19.6707 15.85C20.079 15.5833 20.504 15.2417 20.9457 14.825L21.2957 15.2C20.6874 15.9583 20.1124 16.5625 19.5707 17.0125C19.0374 17.4625 18.5332 17.7875 18.0582 17.9875C17.5832 18.1792 17.129 18.275 16.6957 18.275C16.1624 18.275 15.7999 18.1917 15.6082 18.025C15.4249 17.8583 15.3999 17.6042 15.5332 17.2625ZM19.8707 1.825C19.8707 1.525 19.9374 1.25417 20.0707 1.0125C20.2124 0.770833 20.404 0.579166 20.6457 0.437499C20.8957 0.295833 21.179 0.224999 21.4957 0.224999C21.9707 0.224999 22.354 0.379166 22.6457 0.687499C22.9457 0.987499 23.0957 1.3625 23.0957 1.8125C23.0957 2.12083 23.0249 2.39583 22.8832 2.6375C22.7499 2.87917 22.5624 3.07083 22.3207 3.2125C22.079 3.35417 21.7999 3.425 21.4832 3.425C21.0082 3.425 20.6207 3.275 20.3207 2.975C20.0207 2.66667 19.8707 2.28333 19.8707 1.825ZM22.974 10.825L22.5115 10.6375C22.8865 9.64583 23.2907 8.87083 23.724 8.3125C24.1574 7.74583 24.6199 7.34583 25.1115 7.1125C25.6032 6.87917 26.1074 6.7625 26.624 6.7625C26.824 6.7625 27.0115 6.775 27.1865 6.8C27.3699 6.81667 27.549 6.84583 27.724 6.8875C27.899 6.92083 28.0782 6.9625 28.2615 7.0125L26.674 12.275L26.5865 12.2125C27.0365 11.3708 27.4907 10.6167 27.949 9.95C28.4157 9.275 28.8865 8.70417 29.3615 8.2375C29.8365 7.77083 30.3199 7.4125 30.8115 7.1625C31.3032 6.90417 31.8032 6.775 32.3115 6.775C33.0532 6.775 33.574 6.9375 33.874 7.2625C34.174 7.5875 34.324 8.00417 34.324 8.5125C34.324 8.7875 34.2782 9.1 34.1865 9.45C34.1032 9.79167 33.974 10.1875 33.799 10.6375L31.3115 17.075L31.1365 16.5125C31.4449 16.5125 31.774 16.4542 32.124 16.3375C32.474 16.2125 32.8449 16.0208 33.2365 15.7625C33.6365 15.5042 34.0449 15.175 34.4615 14.775L34.8365 15.15C34.2115 15.9167 33.624 16.5292 33.074 16.9875C32.5324 17.4458 32.024 17.775 31.549 17.975C31.074 18.175 30.6157 18.275 30.174 18.275C29.574 18.275 29.1949 18.1792 29.0365 17.9875C28.8865 17.7958 28.9074 17.45 29.099 16.95L31.6615 10.4125C31.7615 10.1458 31.8365 9.92083 31.8865 9.7375C31.9449 9.55417 31.974 9.39167 31.974 9.25C31.974 9.04167 31.9074 8.87917 31.774 8.7625C31.649 8.6375 31.424 8.575 31.099 8.575C30.7157 8.575 30.2949 8.73333 29.8365 9.05C29.3782 9.35833 28.9157 9.79583 28.449 10.3625C27.9907 10.9208 27.5615 11.575 27.1615 12.325C26.7699 13.0667 26.4449 13.8667 26.1865 14.725L25.149 18H22.924L25.8115 8.6375C25.7865 8.6125 25.7574 8.59167 25.724 8.575C25.699 8.55833 25.6657 8.55 25.624 8.55C25.3324 8.55 25.0449 8.6125 24.7615 8.7375C24.4865 8.8625 24.2032 9.0875 23.9115 9.4125C23.6199 9.7375 23.3074 10.2083 22.974 10.825ZM44.6381 8.8375C44.5464 8.5625 44.3798 8.3375 44.1381 8.1625C43.9048 7.97917 43.6006 7.8875 43.2256 7.8875C42.6589 7.8875 42.1173 8.075 41.6006 8.45C41.0839 8.825 40.6048 9.3125 40.1631 9.9125C39.7214 10.5125 39.3381 11.1542 39.0131 11.8375C38.6881 12.5208 38.4339 13.1833 38.2506 13.825C38.0673 14.4583 37.9756 14.9917 37.9756 15.425C37.9756 15.8 38.0631 16.0708 38.2381 16.2375C38.4214 16.4042 38.6631 16.4875 38.9631 16.4875C39.1881 16.4875 39.4548 16.4167 39.7631 16.275C40.0714 16.125 40.3964 15.9167 40.7381 15.65C41.0798 15.375 41.4214 15.0458 41.7631 14.6625C42.1048 14.2792 42.4256 13.8458 42.7256 13.3625C43.0256 12.8708 43.2756 12.3458 43.4756 11.7875L46.4506 2.375C46.3089 2.21667 46.1589 2.07083 46.0006 1.9375C45.8423 1.80417 45.6714 1.67917 45.4881 1.5625C45.3131 1.4375 45.1089 1.32083 44.8756 1.2125L44.9881 0.849999L49.0631 0.1375H49.3506L44.0256 17.0875L43.7006 16.5C43.9923 16.5333 44.3173 16.4917 44.6756 16.375C45.0339 16.2583 45.4173 16.0667 45.8256 15.8C46.2339 15.525 46.6548 15.1792 47.0881 14.7625L47.4381 15.1375C46.5214 16.2708 45.6923 17.0792 44.9506 17.5625C44.2173 18.0375 43.5298 18.275 42.8881 18.275C42.4381 18.275 42.1214 18.1833 41.9381 18C41.7631 17.825 41.7298 17.5708 41.8381 17.2375L43.1631 13.1625H43.4756C42.8089 14.1875 42.2089 15.0333 41.6756 15.7C41.1423 16.3583 40.6548 16.875 40.2131 17.25C39.7798 17.6167 39.3756 17.875 39.0006 18.025C38.6256 18.175 38.2631 18.25 37.9131 18.25C37.4464 18.25 37.0381 18.1625 36.6881 17.9875C36.3381 17.8125 36.0631 17.5375 35.8631 17.1625C35.6714 16.7875 35.5756 16.3083 35.5756 15.725C35.5756 15.05 35.7006 14.3125 35.9506 13.5125C36.2089 12.7042 36.5631 11.9083 37.0131 11.125C37.4631 10.3333 37.9923 9.6125 38.6006 8.9625C39.2089 8.3125 39.8673 7.79167 40.5756 7.4C41.2839 7.00833 42.0214 6.8125 42.7881 6.8125C43.3048 6.8125 43.7464 6.92083 44.1131 7.1375C44.4881 7.34583 44.8256 7.675 45.1256 8.125L44.6381 8.8375ZM59.7318 17.2875L61.0693 13.1625H61.3693C60.711 14.1708 60.1193 15.0042 59.5943 15.6625C59.0777 16.3208 58.6027 16.8417 58.1693 17.225C57.736 17.6 57.3318 17.8625 56.9568 18.0125C56.5902 18.1708 56.2277 18.25 55.8693 18.25C55.4027 18.25 54.9943 18.1625 54.6443 17.9875C54.2943 17.8125 54.0193 17.5417 53.8193 17.175C53.6277 16.8 53.5318 16.325 53.5318 15.75C53.5318 15.075 53.6568 14.3375 53.9068 13.5375C54.1652 12.7375 54.5193 11.95 54.9693 11.175C55.4193 10.3917 55.9443 9.67917 56.5443 9.0375C57.1443 8.39583 57.7943 7.88333 58.4943 7.5C59.2027 7.10833 59.9318 6.9125 60.6818 6.9125C61.1985 6.9125 61.636 7.0125 61.9943 7.2125C62.361 7.4125 62.6943 7.72917 62.9943 8.1625L62.5068 8.85C62.4152 8.60833 62.2527 8.40417 62.0193 8.2375C61.786 8.07083 61.4902 7.9875 61.1318 7.9875C60.5818 7.9875 60.0527 8.17083 59.5443 8.5375C59.036 8.90417 58.561 9.38333 58.1193 9.975C57.686 10.5583 57.3027 11.1917 56.9693 11.875C56.6443 12.55 56.3902 13.2042 56.2068 13.8375C56.0235 14.4708 55.9318 15.0125 55.9318 15.4625C55.9318 15.8208 56.0193 16.0833 56.1943 16.25C56.3777 16.4083 56.6193 16.4875 56.9193 16.4875C57.1777 16.4875 57.4943 16.3833 57.8693 16.175C58.2527 15.9667 58.6527 15.6708 59.0693 15.2875C59.486 14.8958 59.8818 14.4292 60.2568 13.8875C60.6402 13.3375 60.9652 12.7292 61.2318 12.0625L62.8068 7.4375L64.1443 7.025H65.1818L61.9193 17.075L61.6318 16.4875C61.9235 16.5208 62.2485 16.4792 62.6068 16.3625C62.9652 16.2375 63.3443 16.0417 63.7443 15.775C64.1443 15.5083 64.5485 15.1708 64.9568 14.7625L65.3193 15.1375C64.4027 16.2792 63.5777 17.0875 62.8443 17.5625C62.111 18.0375 61.4235 18.275 60.7818 18.275C60.3402 18.275 60.0277 18.1875 59.8443 18.0125C59.661 17.8375 59.6235 17.5958 59.7318 17.2875ZM75.5768 14.4C75.4851 14.7583 75.4226 15.05 75.3893 15.275C75.3643 15.5 75.3518 15.6875 75.3518 15.8375C75.3518 16.2792 75.4601 16.6542 75.6768 16.9625C75.9018 17.2625 76.2768 17.4125 76.8018 17.4125C77.1601 17.4125 77.5393 17.2792 77.9393 17.0125C78.3393 16.7458 78.7226 16.3792 79.0893 15.9125C79.4643 15.4458 79.8018 14.9125 80.1018 14.3125C80.4018 13.7125 80.6393 13.075 80.8143 12.4C80.9976 11.7167 81.0893 11.0333 81.0893 10.35C81.0893 9.75833 80.9893 9.31667 80.7893 9.025C80.5893 8.73333 80.2643 8.5875 79.8143 8.5875C79.5059 8.5875 79.1934 8.67917 78.8768 8.8625C78.5601 9.0375 78.2476 9.27917 77.9393 9.5875C77.6393 9.89583 77.3518 10.25 77.0768 10.65C76.8101 11.05 76.5726 11.4708 76.3643 11.9125C76.1643 12.3458 76.0059 12.7792 75.8893 13.2125L75.5768 14.4ZM73.7893 16.975L74.9393 17.0125L73.2018 23.2L75.1768 23.7875L75.0143 24.25H69.0143L69.1643 23.7875L70.9518 23.1875L75.0768 8.6375C75.0684 8.6125 75.0559 8.59167 75.0393 8.575C75.0226 8.55833 74.9976 8.55 74.9643 8.55C74.6726 8.55 74.3851 8.6125 74.1018 8.7375C73.8184 8.8625 73.5309 9.0875 73.2393 9.4125C72.9476 9.7375 72.6393 10.2083 72.3143 10.825L71.8518 10.6375C72.2268 9.64583 72.6268 8.86667 73.0518 8.3C73.4851 7.73333 73.9393 7.33333 74.4143 7.1C74.8893 6.86667 75.3809 6.75 75.8893 6.75C76.1809 6.75 76.4518 6.775 76.7018 6.825C76.9601 6.86667 77.2268 6.925 77.5018 7L76.2268 11.5875L76.0768 11.35C76.6268 10.2583 77.1768 9.375 77.7268 8.7C78.2768 8.025 78.8184 7.53333 79.3518 7.225C79.8934 6.90833 80.4143 6.75 80.9143 6.75C81.7976 6.75 82.4601 7.04167 82.9018 7.625C83.3434 8.2 83.5643 8.9125 83.5643 9.7625C83.5643 10.6042 83.4476 11.4375 83.2143 12.2625C82.9893 13.0792 82.6684 13.85 82.2518 14.575C81.8434 15.3 81.3601 15.9417 80.8018 16.5C80.2434 17.05 79.6226 17.4833 78.9393 17.8C78.2643 18.1167 77.5518 18.275 76.8018 18.275C76.1684 18.275 75.5726 18.1667 75.0143 17.95C74.4559 17.7333 74.0476 17.4083 73.7893 16.975ZM90.6566 7.6375C90.2066 7.6375 89.7941 7.78333 89.4191 8.075C89.0441 8.35833 88.7066 8.7375 88.4066 9.2125C88.115 9.6875 87.865 10.2167 87.6566 10.8C87.4566 11.375 87.3025 11.9625 87.1941 12.5625C87.0941 13.1542 87.0441 13.7083 87.0441 14.225C87.0441 15.075 87.2108 15.6833 87.5441 16.05C87.8858 16.4083 88.3441 16.5875 88.9191 16.5875C89.3191 16.5875 89.6941 16.5167 90.0441 16.375C90.4025 16.2333 90.7483 15.9917 91.0816 15.65C91.415 15.3 91.7441 14.8125 92.0691 14.1875H92.7191C92.2691 15.2458 91.815 16.075 91.3566 16.675C90.9066 17.2667 90.415 17.6833 89.8816 17.925C89.3566 18.1583 88.7566 18.275 88.0816 18.275C87.3816 18.275 86.7775 18.1417 86.2691 17.875C85.7608 17.6 85.3691 17.2042 85.0941 16.6875C84.8275 16.1708 84.6941 15.5417 84.6941 14.8C84.6941 13.925 84.8025 13.0875 85.0191 12.2875C85.2441 11.4875 85.5566 10.7542 85.9566 10.0875C86.3566 9.4125 86.8191 8.825 87.3441 8.325C87.8775 7.825 88.4566 7.4375 89.0816 7.1625C89.715 6.8875 90.3691 6.75 91.0441 6.75C91.6858 6.75 92.2066 6.85417 92.6066 7.0625C93.0066 7.2625 93.2941 7.53333 93.4691 7.875C93.6525 8.20833 93.7441 8.57083 93.7441 8.9625C93.7441 9.3375 93.6691 9.70833 93.5191 10.075C93.3775 10.4333 93.1816 10.7333 92.9316 10.975C92.4733 11.1667 91.99 11.3625 91.4816 11.5625C90.9816 11.7542 90.4608 11.9417 89.9191 12.125C89.3858 12.3083 88.8441 12.4875 88.2941 12.6625C87.7525 12.8375 87.2108 13 86.6691 13.15L86.7066 12.275C87.515 12.0333 88.2108 11.7958 88.7941 11.5625C89.3775 11.3292 89.8566 11.1 90.2316 10.875C90.615 10.65 90.915 10.425 91.1316 10.2C91.3483 9.975 91.4983 9.74583 91.5816 9.5125C91.6733 9.27083 91.7191 9.025 91.7191 8.775C91.7191 8.54167 91.6775 8.34167 91.5941 8.175C91.5191 8.00833 91.4025 7.87917 91.2441 7.7875C91.0858 7.6875 90.89 7.6375 90.6566 7.6375ZM97.833 8.6375C97.808 8.6125 97.7788 8.59167 97.7455 8.575C97.7205 8.55833 97.6872 8.55 97.6455 8.55C97.3538 8.55 97.0663 8.6125 96.783 8.7375C96.508 8.8625 96.2247 9.0875 95.933 9.4125C95.6413 9.7375 95.3288 10.2083 94.9955 10.825L94.533 10.6375C94.908 9.64583 95.3122 8.87083 95.7455 8.3125C96.1788 7.74583 96.6413 7.34583 97.133 7.1125C97.6247 6.87917 98.1288 6.7625 98.6455 6.7625C98.8455 6.7625 99.033 6.775 99.208 6.8C99.3913 6.81667 99.5705 6.84583 99.7455 6.8875C99.9205 6.92083 100.1 6.9625 100.283 7.0125L98.8205 11.8625L98.7455 11.7875C99.3288 10.5708 99.8872 9.59583 100.421 8.8625C100.962 8.12083 101.487 7.58333 101.996 7.25C102.512 6.91667 103.025 6.75 103.533 6.75C104.05 6.75 104.429 6.87917 104.671 7.1375C104.921 7.39583 105.046 7.72917 105.046 8.1375C105.046 8.44583 104.971 8.725 104.821 8.975C104.671 9.21667 104.471 9.40833 104.221 9.55C103.971 9.69167 103.696 9.7625 103.396 9.7625C103.279 9.7625 103.179 9.72083 103.096 9.6375C103.012 9.55417 102.921 9.42083 102.821 9.2375C102.721 9.04583 102.621 8.90833 102.521 8.825C102.421 8.73333 102.296 8.6875 102.146 8.6875C101.937 8.6875 101.7 8.78333 101.433 8.975C101.175 9.15833 100.904 9.42917 100.621 9.7875C100.337 10.1375 100.05 10.5625 99.758 11.0625C99.4747 11.5542 99.1955 12.1083 98.9205 12.725C98.6538 13.3417 98.4122 14.0125 98.1955 14.7375L97.183 18H94.9455L97.833 8.6375ZM105.352 8.05L105.552 7.025H113.19L112.99 8.05H105.352ZM108.577 15.1625C108.202 16.9125 107.769 18.3875 107.277 19.5875C106.794 20.7875 106.261 21.75 105.677 22.475C105.094 23.2 104.473 23.7208 103.815 24.0375C103.148 24.3625 102.452 24.525 101.727 24.525C100.961 24.525 100.386 24.3708 100.002 24.0625C99.6107 23.7542 99.4148 23.3667 99.4148 22.9C99.4148 22.575 99.5232 22.2875 99.7398 22.0375C99.9482 21.7958 100.215 21.675 100.54 21.675C100.732 21.675 100.902 21.7542 101.052 21.9125C101.202 22.0708 101.361 22.2958 101.527 22.5875C101.694 22.8792 101.877 23.0833 102.077 23.2C102.269 23.3167 102.473 23.375 102.69 23.375C103.007 23.375 103.307 23.2958 103.59 23.1375C103.873 22.9875 104.14 22.7125 104.39 22.3125C104.648 21.9125 104.894 21.3542 105.127 20.6375C105.361 19.9208 105.59 19 105.815 17.875L108.027 7C108.327 5.51667 108.807 4.26667 109.465 3.25C110.132 2.225 110.936 1.45 111.877 0.924999C112.819 0.4 113.852 0.1375 114.977 0.1375C115.611 0.1375 116.136 0.216666 116.552 0.374999C116.969 0.524999 117.282 0.729166 117.49 0.987499C117.698 1.24583 117.802 1.5375 117.802 1.8625C117.802 2.22083 117.677 2.52083 117.427 2.7625C117.186 3.00417 116.873 3.125 116.49 3.125C116.273 3.125 116.082 3.0125 115.915 2.7875C115.748 2.55417 115.577 2.3 115.402 2.025C115.236 1.74167 115.032 1.53333 114.79 1.4C114.548 1.25833 114.265 1.1875 113.94 1.1875C113.407 1.1875 112.932 1.32083 112.515 1.5875C112.098 1.85417 111.74 2.275 111.44 2.85C111.14 3.425 110.894 4.16667 110.702 5.075L108.577 15.1625ZM118.196 7.6375C117.746 7.6375 117.333 7.78333 116.958 8.075C116.583 8.35833 116.246 8.7375 115.946 9.2125C115.654 9.6875 115.404 10.2167 115.196 10.8C114.996 11.375 114.842 11.9625 114.733 12.5625C114.633 13.1542 114.583 13.7083 114.583 14.225C114.583 15.075 114.75 15.6833 115.083 16.05C115.425 16.4083 115.883 16.5875 116.458 16.5875C116.858 16.5875 117.233 16.5167 117.583 16.375C117.942 16.2333 118.287 15.9917 118.621 15.65C118.954 15.3 119.283 14.8125 119.608 14.1875H120.258C119.808 15.2458 119.354 16.075 118.896 16.675C118.446 17.2667 117.954 17.6833 117.421 17.925C116.896 18.1583 116.296 18.275 115.621 18.275C114.921 18.275 114.317 18.1417 113.808 17.875C113.3 17.6 112.908 17.2042 112.633 16.6875C112.367 16.1708 112.233 15.5417 112.233 14.8C112.233 13.925 112.342 13.0875 112.558 12.2875C112.783 11.4875 113.096 10.7542 113.496 10.0875C113.896 9.4125 114.358 8.825 114.883 8.325C115.417 7.825 115.996 7.4375 116.621 7.1625C117.254 6.8875 117.908 6.75 118.583 6.75C119.225 6.75 119.746 6.85417 120.146 7.0625C120.546 7.2625 120.833 7.53333 121.008 7.875C121.192 8.20833 121.283 8.57083 121.283 8.9625C121.283 9.3375 121.208 9.70833 121.058 10.075C120.917 10.4333 120.721 10.7333 120.471 10.975C120.012 11.1667 119.529 11.3625 119.021 11.5625C118.521 11.7542 118 11.9417 117.458 12.125C116.925 12.3083 116.383 12.4875 115.833 12.6625C115.292 12.8375 114.75 13 114.208 13.15L114.246 12.275C115.054 12.0333 115.75 11.7958 116.333 11.5625C116.917 11.3292 117.396 11.1 117.771 10.875C118.154 10.65 118.454 10.425 118.671 10.2C118.887 9.975 119.037 9.74583 119.121 9.5125C119.212 9.27083 119.258 9.025 119.258 8.775C119.258 8.54167 119.217 8.34167 119.133 8.175C119.058 8.00833 118.942 7.87917 118.783 7.7875C118.625 7.6875 118.429 7.6375 118.196 7.6375ZM127.685 7.7375C127.226 7.7375 126.797 7.93333 126.397 8.325C126.005 8.70833 125.66 9.21667 125.36 9.85C125.068 10.475 124.839 11.1708 124.672 11.9375C124.505 12.7042 124.422 13.4667 124.422 14.225C124.422 15.075 124.56 15.6833 124.835 16.05C125.11 16.4083 125.53 16.5875 126.097 16.5875C126.455 16.5875 126.805 16.5125 127.147 16.3625C127.489 16.2125 127.826 15.9625 128.16 15.6125C128.501 15.2625 128.839 14.7875 129.172 14.1875H129.81C129.351 15.2375 128.889 16.0625 128.422 16.6625C127.964 17.2542 127.476 17.6708 126.96 17.9125C126.451 18.1542 125.885 18.275 125.26 18.275C124.235 18.275 123.447 17.9833 122.897 17.4C122.347 16.8083 122.072 15.9417 122.072 14.8C122.072 13.6833 122.247 12.6417 122.597 11.675C122.947 10.7 123.422 9.84583 124.022 9.1125C124.622 8.37083 125.314 7.79167 126.097 7.375C126.88 6.95833 127.705 6.75 128.572 6.75C129.422 6.75 130.047 6.92083 130.447 7.2625C130.847 7.60417 131.047 8.00417 131.047 8.4625C131.047 8.82917 130.93 9.1125 130.697 9.3125C130.464 9.5125 130.164 9.61667 129.797 9.625C129.639 9.625 129.489 9.54167 129.347 9.375C129.205 9.2 129.055 8.97083 128.897 8.6875C128.747 8.39583 128.572 8.16667 128.372 8C128.172 7.825 127.943 7.7375 127.685 7.7375ZM132.31 8.05L132.535 7.025H139.435L139.223 8.05H132.31ZM134.698 14.775C134.631 14.9917 134.577 15.175 134.535 15.325C134.502 15.4667 134.477 15.5875 134.46 15.6875C134.452 15.7875 134.448 15.875 134.448 15.95C134.448 16.1 134.477 16.2083 134.535 16.275C134.593 16.3417 134.677 16.375 134.785 16.375C134.96 16.375 135.189 16.2833 135.473 16.1C135.764 15.9167 136.093 15.6458 136.46 15.2875C136.835 14.9292 137.227 14.4833 137.635 13.95L138.11 14.2875C137.685 14.9542 137.268 15.5375 136.86 16.0375C136.452 16.5292 136.052 16.9417 135.66 17.275C135.277 17.6 134.906 17.8458 134.548 18.0125C134.198 18.1792 133.856 18.2625 133.523 18.2625C133.123 18.2625 132.793 18.1458 132.535 17.9125C132.285 17.6792 132.16 17.2708 132.16 16.6875C132.16 16.4458 132.189 16.1542 132.248 15.8125C132.306 15.4625 132.41 15.05 132.56 14.575L135.485 4.575H137.748L134.698 14.775ZM145.836 8.05L146.061 7.025H152.961L152.748 8.05H145.836ZM148.223 14.775C148.156 14.9917 148.102 15.175 148.061 15.325C148.027 15.4667 148.002 15.5875 147.986 15.6875C147.977 15.7875 147.973 15.875 147.973 15.95C147.973 16.1 148.002 16.2083 148.061 16.275C148.119 16.3417 148.202 16.375 148.311 16.375C148.486 16.375 148.715 16.2833 148.998 16.1C149.29 15.9167 149.619 15.6458 149.986 15.2875C150.361 14.9292 150.752 14.4833 151.161 13.95L151.636 14.2875C151.211 14.9542 150.794 15.5375 150.386 16.0375C149.977 16.5292 149.577 16.9417 149.186 17.275C148.802 17.6 148.431 17.8458 148.073 18.0125C147.723 18.1792 147.381 18.2625 147.048 18.2625C146.648 18.2625 146.319 18.1458 146.061 17.9125C145.811 17.6792 145.686 17.2708 145.686 16.6875C145.686 16.4458 145.715 16.1542 145.773 15.8125C145.831 15.4625 145.936 15.05 146.086 14.575L149.011 4.575H151.273L148.223 14.775ZM156.207 8.6375C156.182 8.6125 156.153 8.59167 156.12 8.575C156.095 8.55833 156.061 8.55 156.02 8.55C155.728 8.55 155.44 8.6125 155.157 8.7375C154.882 8.8625 154.599 9.0875 154.307 9.4125C154.015 9.7375 153.703 10.2083 153.37 10.825L152.907 10.6375C153.282 9.64583 153.686 8.87083 154.12 8.3125C154.553 7.74583 155.015 7.34583 155.507 7.1125C155.999 6.87917 156.503 6.7625 157.02 6.7625C157.22 6.7625 157.407 6.775 157.582 6.8C157.765 6.81667 157.945 6.84583 158.12 6.8875C158.295 6.92083 158.474 6.9625 158.657 7.0125L157.195 11.8625L157.12 11.7875C157.703 10.5708 158.261 9.59583 158.795 8.8625C159.336 8.12083 159.861 7.58333 160.37 7.25C160.886 6.91667 161.399 6.75 161.907 6.75C162.424 6.75 162.803 6.87917 163.045 7.1375C163.295 7.39583 163.42 7.72917 163.42 8.1375C163.42 8.44583 163.345 8.725 163.195 8.975C163.045 9.21667 162.845 9.40833 162.595 9.55C162.345 9.69167 162.07 9.7625 161.77 9.7625C161.653 9.7625 161.553 9.72083 161.47 9.6375C161.386 9.55417 161.295 9.42083 161.195 9.2375C161.095 9.04583 160.995 8.90833 160.895 8.825C160.795 8.73333 160.67 8.6875 160.52 8.6875C160.311 8.6875 160.074 8.78333 159.807 8.975C159.549 9.15833 159.278 9.42917 158.995 9.7875C158.711 10.1375 158.424 10.5625 158.132 11.0625C157.849 11.5542 157.57 12.1083 157.295 12.725C157.028 13.3417 156.786 14.0125 156.57 14.7375L155.557 18H153.32L156.207 8.6375ZM168.496 17.2875L169.834 13.1625H170.134C169.476 14.1708 168.884 15.0042 168.359 15.6625C167.842 16.3208 167.367 16.8417 166.934 17.225C166.501 17.6 166.096 17.8625 165.721 18.0125C165.355 18.1708 164.992 18.25 164.634 18.25C164.167 18.25 163.759 18.1625 163.409 17.9875C163.059 17.8125 162.784 17.5417 162.584 17.175C162.392 16.8 162.296 16.325 162.296 15.75C162.296 15.075 162.421 14.3375 162.671 13.5375C162.93 12.7375 163.284 11.95 163.734 11.175C164.184 10.3917 164.709 9.67917 165.309 9.0375C165.909 8.39583 166.559 7.88333 167.259 7.5C167.967 7.10833 168.696 6.9125 169.446 6.9125C169.963 6.9125 170.401 7.0125 170.759 7.2125C171.126 7.4125 171.459 7.72917 171.759 8.1625L171.271 8.85C171.18 8.60833 171.017 8.40417 170.784 8.2375C170.551 8.07083 170.255 7.9875 169.896 7.9875C169.346 7.9875 168.817 8.17083 168.309 8.5375C167.801 8.90417 167.326 9.38333 166.884 9.975C166.451 10.5583 166.067 11.1917 165.734 11.875C165.409 12.55 165.155 13.2042 164.971 13.8375C164.788 14.4708 164.696 15.0125 164.696 15.4625C164.696 15.8208 164.784 16.0833 164.959 16.25C165.142 16.4083 165.384 16.4875 165.684 16.4875C165.942 16.4875 166.259 16.3833 166.634 16.175C167.017 15.9667 167.417 15.6708 167.834 15.2875C168.251 14.8958 168.646 14.4292 169.021 13.8875C169.405 13.3375 169.73 12.7292 169.996 12.0625L171.571 7.4375L172.909 7.025H173.946L170.684 17.075L170.396 16.4875C170.688 16.5208 171.013 16.4792 171.371 16.3625C171.73 16.2375 172.109 16.0417 172.509 15.775C172.909 15.5083 173.313 15.1708 173.721 14.7625L174.084 15.1375C173.167 16.2792 172.342 17.0875 171.609 17.5625C170.876 18.0375 170.188 18.275 169.546 18.275C169.105 18.275 168.792 18.1875 168.609 18.0125C168.426 17.8375 168.388 17.5958 168.496 17.2875ZM175.25 17.2625L178.55 8.1625L179 8.575C178.692 8.55833 178.358 8.61667 178 8.75C177.642 8.88333 177.267 9.09167 176.875 9.375C176.492 9.65833 176.096 10.025 175.688 10.475L175.313 10.1125C175.913 9.25417 176.475 8.58333 177 8.1C177.533 7.60833 178.038 7.2625 178.513 7.0625C178.996 6.8625 179.458 6.7625 179.9 6.7625C180.342 6.7625 180.646 6.84583 180.813 7.0125C180.988 7.17917 181.017 7.42917 180.9 7.7625L177.588 17.075L177.225 16.5C177.533 16.5333 177.867 16.5 178.225 16.4C178.592 16.2917 178.979 16.1083 179.388 15.85C179.796 15.5833 180.221 15.2417 180.663 14.825L181.013 15.2C180.404 15.9583 179.829 16.5625 179.288 17.0125C178.754 17.4625 178.25 17.7875 177.775 17.9875C177.3 18.1792 176.846 18.275 176.413 18.275C175.879 18.275 175.517 18.1917 175.325 18.025C175.142 17.8583 175.117 17.6042 175.25 17.2625ZM179.588 1.825C179.588 1.525 179.654 1.25417 179.788 1.0125C179.929 0.770833 180.121 0.579166 180.363 0.437499C180.613 0.295833 180.896 0.224999 181.213 0.224999C181.688 0.224999 182.071 0.379166 182.363 0.687499C182.663 0.987499 182.813 1.3625 182.813 1.8125C182.813 2.12083 182.742 2.39583 182.6 2.6375C182.467 2.87917 182.279 3.07083 182.038 3.2125C181.796 3.35417 181.517 3.425 181.2 3.425C180.725 3.425 180.338 3.275 180.038 2.975C179.738 2.66667 179.588 2.28333 179.588 1.825ZM186.553 2.325C186.412 2.175 186.262 2.0375 186.103 1.9125C185.953 1.7875 185.787 1.66667 185.603 1.55C185.428 1.43333 185.22 1.32083 184.978 1.2125L185.091 0.849999L189.166 0.1375H189.466L184.253 17L183.966 16.4875C184.266 16.5292 184.599 16.5 184.966 16.4C185.341 16.2917 185.737 16.1083 186.153 15.85C186.57 15.5833 186.999 15.2375 187.441 14.8125L187.791 15.2C187.182 15.9583 186.603 16.5625 186.053 17.0125C185.503 17.4625 184.987 17.7875 184.503 17.9875C184.028 18.1792 183.57 18.275 183.128 18.275C182.637 18.275 182.291 18.1958 182.091 18.0375C181.891 17.8792 181.845 17.6208 181.953 17.2625L186.553 2.325ZM194.464 8.05L194.664 7.025H202.301L202.101 8.05H194.464ZM197.689 15.1625C197.314 16.9125 196.88 18.3875 196.389 19.5875C195.905 20.7875 195.372 21.75 194.789 22.475C194.205 23.2 193.585 23.7208 192.926 24.0375C192.26 24.3625 191.564 24.525 190.839 24.525C190.072 24.525 189.497 24.3708 189.114 24.0625C188.722 23.7542 188.526 23.3667 188.526 22.9C188.526 22.575 188.635 22.2875 188.851 22.0375C189.06 21.7958 189.326 21.675 189.651 21.675C189.843 21.675 190.014 21.7542 190.164 21.9125C190.314 22.0708 190.472 22.2958 190.639 22.5875C190.805 22.8792 190.989 23.0833 191.189 23.2C191.38 23.3167 191.585 23.375 191.801 23.375C192.118 23.375 192.418 23.2958 192.701 23.1375C192.985 22.9875 193.251 22.7125 193.501 22.3125C193.76 21.9125 194.005 21.3542 194.239 20.6375C194.472 19.9208 194.701 19 194.926 17.875L197.139 7C197.439 5.51667 197.918 4.26667 198.576 3.25C199.243 2.225 200.047 1.45 200.989 0.924999C201.93 0.4 202.964 0.1375 204.089 0.1375C204.722 0.1375 205.247 0.216666 205.664 0.374999C206.08 0.524999 206.393 0.729166 206.601 0.987499C206.81 1.24583 206.914 1.5375 206.914 1.8625C206.914 2.22083 206.789 2.52083 206.539 2.7625C206.297 3.00417 205.985 3.125 205.601 3.125C205.385 3.125 205.193 3.0125 205.026 2.7875C204.86 2.55417 204.689 2.3 204.514 2.025C204.347 1.74167 204.143 1.53333 203.901 1.4C203.66 1.25833 203.376 1.1875 203.051 1.1875C202.518 1.1875 202.043 1.32083 201.626 1.5875C201.21 1.85417 200.851 2.275 200.551 2.85C200.251 3.425 200.005 4.16667 199.814 5.075L197.689 15.1625ZM207.682 6.75C208.432 6.75 209.07 6.90417 209.595 7.2125C210.12 7.52083 210.52 7.9625 210.795 8.5375C211.07 9.10417 211.207 9.7875 211.207 10.5875C211.207 11.5958 211.045 12.5625 210.72 13.4875C210.403 14.4042 209.957 15.2208 209.382 15.9375C208.807 16.6542 208.14 17.225 207.382 17.65C206.624 18.0667 205.807 18.275 204.932 18.275C204.19 18.275 203.557 18.1208 203.032 17.8125C202.507 17.5042 202.103 17.0625 201.82 16.4875C201.545 15.9125 201.407 15.2292 201.407 14.4375C201.407 13.4292 201.57 12.4667 201.895 11.55C202.22 10.625 202.665 9.80417 203.232 9.0875C203.807 8.37083 204.474 7.80417 205.232 7.3875C205.99 6.9625 206.807 6.75 207.682 6.75ZM204.932 17.3875C205.34 17.3875 205.74 17.2375 206.132 16.9375C206.524 16.6292 206.89 16.2125 207.232 15.6875C207.574 15.1625 207.874 14.5708 208.132 13.9125C208.399 13.2458 208.607 12.5542 208.757 11.8375C208.907 11.1208 208.982 10.4167 208.982 9.725C208.982 9 208.878 8.47083 208.67 8.1375C208.461 7.80417 208.132 7.6375 207.682 7.6375C207.274 7.6375 206.874 7.79167 206.482 8.1C206.09 8.4 205.724 8.8125 205.382 9.3375C205.04 9.8625 204.736 10.4583 204.47 11.125C204.211 11.7833 204.007 12.4708 203.857 13.1875C203.707 13.9042 203.632 14.6083 203.632 15.3C203.632 16.025 203.736 16.5542 203.945 16.8875C204.153 17.2208 204.482 17.3875 204.932 17.3875ZM215.851 8.6375C215.826 8.6125 215.796 8.59167 215.763 8.575C215.738 8.55833 215.705 8.55 215.663 8.55C215.371 8.55 215.084 8.6125 214.801 8.7375C214.526 8.8625 214.242 9.0875 213.951 9.4125C213.659 9.7375 213.346 10.2083 213.013 10.825L212.551 10.6375C212.926 9.64583 213.33 8.87083 213.763 8.3125C214.196 7.74583 214.659 7.34583 215.151 7.1125C215.642 6.87917 216.146 6.7625 216.663 6.7625C216.863 6.7625 217.051 6.775 217.226 6.8C217.409 6.81667 217.588 6.84583 217.763 6.8875C217.938 6.92083 218.117 6.9625 218.301 7.0125L216.838 11.8625L216.763 11.7875C217.346 10.5708 217.905 9.59583 218.438 8.8625C218.98 8.12083 219.505 7.58333 220.013 7.25C220.53 6.91667 221.042 6.75 221.551 6.75C222.067 6.75 222.446 6.87917 222.688 7.1375C222.938 7.39583 223.063 7.72917 223.063 8.1375C223.063 8.44583 222.988 8.725 222.838 8.975C222.688 9.21667 222.488 9.40833 222.238 9.55C221.988 9.69167 221.713 9.7625 221.413 9.7625C221.296 9.7625 221.196 9.72083 221.113 9.6375C221.03 9.55417 220.938 9.42083 220.838 9.2375C220.738 9.04583 220.638 8.90833 220.538 8.825C220.438 8.73333 220.313 8.6875 220.163 8.6875C219.955 8.6875 219.717 8.78333 219.451 8.975C219.192 9.15833 218.921 9.42917 218.638 9.7875C218.355 10.1375 218.067 10.5625 217.776 11.0625C217.492 11.5542 217.213 12.1083 216.938 12.725C216.671 13.3417 216.43 14.0125 216.213 14.7375L215.201 18H212.963L215.851 8.6375ZM227.86 11.5625H227.31C227.452 10.6542 227.627 9.89167 227.835 9.275C228.044 8.65833 228.285 8.16667 228.56 7.8C228.844 7.425 229.156 7.15833 229.498 7C229.848 6.83333 230.231 6.75 230.648 6.75C230.873 6.75 231.069 6.8 231.235 6.9C231.402 7 231.552 7.17917 231.685 7.4375C231.819 7.69583 231.944 8.05417 232.06 8.5125C232.185 8.97917 232.315 9.64167 232.448 10.5C232.59 11.3583 232.744 12.4542 232.91 13.7875C233.077 15.1208 233.26 16.7292 233.46 18.6125L231.548 20.5125C231.398 19.1542 231.256 17.9583 231.123 16.925C230.998 15.8917 230.881 14.9917 230.773 14.225C230.673 13.45 230.577 12.775 230.485 12.2C230.402 11.625 230.319 11.1208 230.235 10.6875C230.127 10.0958 230.035 9.6625 229.96 9.3875C229.885 9.1125 229.815 8.9375 229.748 8.8625C229.69 8.77917 229.615 8.7375 229.523 8.7375C229.331 8.7375 229.14 8.82083 228.948 8.9875C228.765 9.14583 228.581 9.43333 228.398 9.85C228.215 10.2583 228.035 10.8292 227.86 11.5625ZM232.31 18.85L232.723 18.525C233.381 17.55 233.931 16.6208 234.373 15.7375C234.815 14.8458 235.169 13.9542 235.435 13.0625C235.702 12.1708 235.894 11.2333 236.01 10.25C236.127 9.25833 236.181 8.17917 236.173 7.0125C236.431 6.92917 236.685 6.87083 236.935 6.8375C237.194 6.80417 237.44 6.7875 237.673 6.7875C237.898 6.7875 238.069 6.83333 238.185 6.925C238.302 7.01667 238.36 7.16667 238.36 7.375C238.36 7.80833 238.306 8.3 238.198 8.85C238.098 9.4 237.935 10.0083 237.71 10.675C237.494 11.3417 237.215 12.0625 236.873 12.8375C236.531 13.6042 236.123 14.425 235.648 15.3C235.181 16.175 234.644 17.1 234.035 18.075C233.019 19.6917 232.09 20.9708 231.248 21.9125C230.406 22.8542 229.61 23.525 228.86 23.925C228.119 24.325 227.381 24.525 226.648 24.525C225.981 24.525 225.498 24.375 225.198 24.075C224.898 23.775 224.748 23.3875 224.748 22.9125C224.748 22.5125 224.869 22.1833 225.11 21.925C225.344 21.675 225.631 21.55 225.973 21.55C226.098 21.55 226.215 21.6 226.323 21.7C226.423 21.8 226.565 21.9917 226.748 22.275C226.94 22.55 227.127 22.7375 227.31 22.8375C227.502 22.9458 227.694 23 227.885 23C228.235 23 228.656 22.8333 229.148 22.5C229.64 22.1667 230.16 21.6875 230.71 21.0625C231.26 20.4375 231.794 19.7 232.31 18.85ZM245.353 6.75C246.103 6.75 246.74 6.90417 247.265 7.2125C247.79 7.52083 248.19 7.9625 248.465 8.5375C248.74 9.10417 248.878 9.7875 248.878 10.5875C248.878 11.5958 248.715 12.5625 248.39 13.4875C248.074 14.4042 247.628 15.2208 247.053 15.9375C246.478 16.6542 245.811 17.225 245.053 17.65C244.295 18.0667 243.478 18.275 242.603 18.275C241.861 18.275 241.228 18.1208 240.703 17.8125C240.178 17.5042 239.774 17.0625 239.49 16.4875C239.215 15.9125 239.078 15.2292 239.078 14.4375C239.078 13.4292 239.24 12.4667 239.565 11.55C239.89 10.625 240.336 9.80417 240.903 9.0875C241.478 8.37083 242.145 7.80417 242.903 7.3875C243.661 6.9625 244.478 6.75 245.353 6.75ZM242.603 17.3875C243.011 17.3875 243.411 17.2375 243.803 16.9375C244.195 16.6292 244.561 16.2125 244.903 15.6875C245.245 15.1625 245.545 14.5708 245.803 13.9125C246.07 13.2458 246.278 12.5542 246.428 11.8375C246.578 11.1208 246.653 10.4167 246.653 9.725C246.653 9 246.549 8.47083 246.34 8.1375C246.132 7.80417 245.803 7.6375 245.353 7.6375C244.945 7.6375 244.545 7.79167 244.153 8.1C243.761 8.4 243.395 8.8125 243.053 9.3375C242.711 9.8625 242.407 10.4583 242.14 11.125C241.882 11.7833 241.678 12.4708 241.528 13.1875C241.378 13.9042 241.303 14.6083 241.303 15.3C241.303 16.025 241.407 16.5542 241.615 16.8875C241.824 17.2208 242.153 17.3875 242.603 17.3875ZM256.646 17.375L258.009 12.8375L258.159 12.9125C257.576 13.9708 257.038 14.85 256.546 15.55C256.063 16.25 255.605 16.8 255.171 17.2C254.746 17.5917 254.334 17.8667 253.934 18.025C253.534 18.1917 253.121 18.275 252.696 18.275C252.038 18.275 251.563 18.125 251.271 17.825C250.98 17.525 250.834 17.1333 250.834 16.65C250.834 16.375 250.876 16.0583 250.959 15.7C251.051 15.3333 251.18 14.9292 251.346 14.4875L253.771 7.95L254.184 8.5625C253.867 8.5375 253.521 8.59167 253.146 8.725C252.771 8.85 252.38 9.05833 251.971 9.35C251.563 9.64167 251.142 10.0167 250.709 10.475L250.309 10.1125C250.909 9.27917 251.48 8.61667 252.021 8.125C252.563 7.63333 253.08 7.28333 253.571 7.075C254.071 6.86667 254.551 6.7625 255.009 6.7625C255.467 6.7625 255.788 6.84583 255.971 7.0125C256.155 7.17917 256.184 7.42917 256.059 7.7625L253.434 14.8125C253.359 15.0458 253.296 15.2458 253.246 15.4125C253.205 15.5708 253.184 15.7083 253.184 15.825C253.184 16.025 253.246 16.1792 253.371 16.2875C253.496 16.3958 253.692 16.45 253.959 16.45C254.284 16.45 254.646 16.3125 255.046 16.0375C255.455 15.7542 255.863 15.3583 256.271 14.85C256.688 14.3417 257.08 13.7458 257.446 13.0625C257.813 12.3708 258.121 11.6167 258.371 10.8L259.559 7.025H261.784L258.709 17L258.534 16.5C258.826 16.525 259.151 16.4792 259.509 16.3625C259.876 16.2458 260.263 16.0542 260.671 15.7875C261.08 15.5208 261.492 15.1792 261.909 14.7625L262.259 15.1375C261.367 16.2958 260.546 17.1083 259.796 17.575C259.055 18.0417 258.376 18.275 257.759 18.275C257.276 18.275 256.946 18.2 256.771 18.05C256.596 17.9083 256.555 17.6833 256.646 17.375Z" fill="black"/>
</svg>
